HIERARCHY
ROOT hip
{
	OFFSET 0.000000 0.000000 0.000000 
	CHANNELS 6 Xposition Yposition Zposition Xrotation Zrotation Yrotation
	JOINT abdomen
	{
		OFFSET 0.000000 3.402643 0.000000 
		CHANNELS 3 Xrotation Zrotation Yrotation
		JOINT chest
		{
			OFFSET 0.000000 8.438565 -0.680529 
			CHANNELS 3 Xrotation Zrotation Yrotation
			JOINT neck
			{
				OFFSET 0.000000 10.207942 -0.272212 
				CHANNELS 3 Xrotation Zrotation Yrotation
				JOINT head
				{
					OFFSET 0.000000 3.130431 0.000000 
					CHANNELS 3 Xrotation Zrotation Yrotation
					End Site
					{
						OFFSET 0.000000 3.130435 0.000000 
					}
				}
			}
			JOINT lCollar
			{
				OFFSET 3.470700 6.669187 -0.816635 
				CHANNELS 3 Yrotation Zrotation Xrotation
				JOINT lShldr
				{
					OFFSET 3.198488 0.000000 0.000000 
					CHANNELS 3 Zrotation Yrotation Xrotation
					JOINT lForeArm
					{
						OFFSET 10.139888 0.000000 0.000000 
						CHANNELS 3 Yrotation Zrotation Xrotation
						JOINT lHand
						{
							OFFSET 8.370511 0.000000 0.000000 
							CHANNELS 3 Zrotation Yrotation Xrotation
							End Site
							{
								OFFSET 4.083176 0.000000 0.000000 
							}
						}
					}
				}
			}
			JOINT rCollar
			{
				OFFSET -3.470700 6.669187 -0.816635 
				CHANNELS 3 Yrotation Zrotation Xrotation
				JOINT rShldr
				{
					OFFSET -3.198488 0.000000 0.000000 
					CHANNELS 3 Zrotation Yrotation Xrotation
					JOINT rForeArm
					{
						OFFSET -10.139888 0.000000 0.000000 
						CHANNELS 3 Yrotation Zrotation Xrotation
						JOINT rHand
						{
							OFFSET -8.370511 0.000000 0.000000 
							CHANNELS 3 Zrotation Yrotation Xrotation
							End Site
							{
								OFFSET -4.083176 0.000000 0.000000 
							}
						}
					}
				}
			}
		}
	}
	JOINT lThigh
	{
		OFFSET 5.308129 -1.633274 1.361059 
		CHANNELS 3 Xrotation Zrotation Yrotation
		JOINT lShin
		{
			OFFSET -2.041588 -20.007561 0.000000 
			CHANNELS 3 Xrotation Zrotation Yrotation
			JOINT lFoot
			{
				OFFSET 0.000000 -19.190928 -1.224953 
				CHANNELS 3 Xrotation Yrotation Zrotation
				End Site
				{
					OFFSET 0.000000 -2.449906 4.627600 
				}
			}
		}
	}
	JOINT rThigh
	{
		OFFSET -5.308129 -1.633274 1.361059 
		CHANNELS 3 Xrotation Zrotation Yrotation
		JOINT rShin
		{
			OFFSET 2.041588 -20.007561 0.000000 
			CHANNELS 3 Xrotation Zrotation Yrotation
			JOINT rFoot
			{
				OFFSET 0.000000 -19.190928 -1.224953 
				CHANNELS 3 Xrotation Yrotation Zrotation
				End Site
				{
					OFFSET 0.000000 -2.449906 4.627600 
				}
			}
		}
	}
}
MOTION
Frames: 6
Frame Time: 0.033333
0.423463 50.457970 1.957531 6.567588 -2.497487 2.570599 0.000000 0.000000 0.000000 -1.178417 -0.951342 6.250756 20.383434 2.158202 0.068679 -3.887944 -0.536797 -1.953222 4.289464 -2.094589 24.619816 -58.280304 -2.880047 -18.438240 -51.636936 -37.193459 119.125206 -27.644936 7.817273 -60.611988 -16.283689 -0.210243 24.464354 42.404045 7.344264 55.288601 83.664948 -22.114605 103.976768 56.625881 2.094186 -82.599976 13.286554 1.192158 17.174305 2.681310 -1.362968 0.300796 -6.180735 -9.952677 2.503186 7.646719 2.178202 1.621204 8.501297 2.155683 0.337531 4.038830 -19.772642 26.309837 
0.311148 50.433865 1.770471 6.872153 -2.791162 2.062856 0.000000 0.000000 0.000000 -1.108626 -0.572639 6.347923 20.177332 1.816406 0.049113 -4.079025 -0.136686 -1.259785 4.439822 -2.444121 24.636044 -56.531754 -6.177613 -18.868708 -48.473743 -36.145779 114.634811 -21.437447 17.092051 -63.917347 -15.887001 0.209472 24.594992 29.055088 11.786616 48.542717 87.828255 -12.976168 86.522644 57.067928 -6.838903 -83.947891 12.511903 1.660931 17.339664 3.267482 -1.519628 0.260064 -7.551187 -9.029597 3.974523 6.979752 2.548104 1.732556 8.572199 2.303111 0.408355 2.657075 -20.506254 23.291336 
0.211001 50.448311 1.615933 6.529736 -3.026245 1.544941 0.000000 0.000000 0.000000 -0.425457 -0.135860 6.425786 20.195816 1.474609 0.019776 -4.311506 0.361295 -0.771469 4.669737 -2.499341 24.642466 -55.023773 -9.633929 -19.198977 -47.557606 -34.732292 111.748329 -18.373644 21.556452 -64.642242 -15.550628 0.272096 24.614679 21.844393 15.184523 45.045540 87.469872 -10.973436 71.795959 54.318081 -14.276287 -83.809753 12.562850 2.148850 17.515928 3.698068 -1.608202 0.207409 -7.620298 -8.503676 3.889558 7.423939 3.034408 1.866292 7.937696 2.186038 0.316592 2.052438 -20.851364 21.044825 
0.144013 50.470753 1.399664 6.191232 -2.870493 1.173339 0.000000 0.000000 0.000000 0.222371 -0.106749 6.416023 20.518087 1.494141 0.019779 -4.483531 0.087884 -0.722655 4.531446 -2.037501 24.612787 -52.862762 -14.423143 -19.736019 -52.084370 -33.264385 116.312714 -27.797092 11.706078 -62.733074 -15.564629 -0.137627 24.497997 9.507688 17.286814 40.202972 89.541504 -9.806746 49.248127 47.842201 -25.439745 -82.041489 12.362168 2.139195 17.542568 4.253834 -1.383470 0.202230 -5.716849 -8.561243 0.859526 7.856507 3.064981 1.874059 7.138460 2.107159 0.247780 1.445115 -21.078928 18.508547 
0.127754 50.468536 1.187524 6.525114 -2.362811 1.143217 0.000000 0.000000 0.000000 0.065691 -0.553259 6.318630 20.870365 1.796875 0.039350 -4.441847 -0.546759 -1.181773 4.118839 -1.304456 24.575224 -50.684368 -18.510925 -20.393248 -53.918385 -31.131409 113.868263 -27.834515 13.658188 -63.919125 -16.028694 -0.774192 24.295567 -4.101097 18.035795 36.168198 93.279678 -9.340532 30.266115 40.062523 -33.643990 -78.854370 11.308163 1.515042 17.351425 4.976359 -0.825542 0.307085 -4.689950 -8.679967 -0.910745 7.264050 2.343445 1.665252 7.098815 2.596431 0.345024 0.157512 -21.449850 15.650173 
0.081772 50.474171 0.947258 6.861728 -1.943083 0.967234 0.000000 0.000000 0.000000 -0.137944 -0.902805 6.250761 21.329773 1.933593 0.049130 -4.400687 -0.859063 -1.543234 4.092816 -0.406979 24.510902 -47.399754 -23.471380 -21.550812 -55.593601 -28.584473 111.679138 -27.464584 14.792884 -64.441292 -16.513756 -1.641574 24.016043 -19.648899 17.208921 33.688953 97.966522 -12.274803 13.746107 31.047476 -39.410515 -74.864067 10.313161 1.065663 17.257357 5.630898 -0.476362 0.317574 -4.823170 -8.457980 -1.154087 6.709114 1.797135 1.528086 6.820593 3.023661 0.394791 -1.146901 -21.579502 12.692201 
